<?xml version="1.0" encoding="UTF-8"?>
<svg id="Layer_1" data-name="Layer 1" xmlns="http://www.w3.org/2000/svg" viewBox="0 0 4571.06 3456">
  <defs>
    <style>
      .cls-1 {
        fill: #920004;
      }

      .cls-2 {
        fill: #fee6e6;
      }

      .cls-3 {
        fill: #c30005;
      }

      .cls-4 {
        fill: #fff;
      }

      .cls-5 {
        fill: #620002;
      }

      .cls-6 {
        fill: #f40006;
      }
    </style>
  </defs>
  <rect x="1324.56" y="230.4" width="1939.23" height="2995.2"/>
  <rect class="cls-3" x="1671.64" y="230.4" width="586.32" height="2995.2"/>
  <rect class="cls-6" x="1030.18" y="230.4" width="586.32" height="2995.2"/>
  <rect class="cls-5" x="2954.56" y="230.4" width="586.32" height="2995.2"/>
  <rect class="cls-1" x="2313.1" y="230.4" width="586.32" height="2995.2"/>
  <g>
    <rect class="cls-3" x="3191.09" y="2650.47" width="113.25" height="584.03" transform="translate(6190.2 -305.24) rotate(90)"/>
    <rect class="cls-6" x="3191.09" y="2537.49" width="113.25" height="584.03" transform="translate(6077.22 -418.22) rotate(90)"/>
    <rect class="cls-5" x="3191.09" y="2876.96" width="113.25" height="584.03" transform="translate(6416.69 -78.75) rotate(90)"/>
    <rect class="cls-1" x="3191.09" y="2763.49" width="113.25" height="584.03" transform="translate(6303.22 -192.22) rotate(90)"/>
  </g>
  <g>
    <path class="cls-2" d="M3103.38,2397.64l282.96,104.69v96.21l-282.96,104.69v-93.94l179.4-58.86-179.4-58.86v-93.94Z"/>
    <path class="cls-2" d="M3318.43,2234.09c0-23.2-9.06-43.01-21.51-54.33l39.05-67.91c38.48,27.73,58.29,69.61,58.29,123.37,0,96.77-65.08,156.76-149.4,156.76s-149.4-61.12-149.4-150.53c0-82.62,63.95-143.74,149.4-143.74,11.88,0,23.2,1.13,33.96,3.4v200.9c29.43-10.75,39.61-36.79,39.61-67.91ZM3215.43,2182.02c-32.82,9.05-44.71,34.52-44.71,59.99,0,32.26,15.85,53.76,44.71,61.69v-121.67Z"/>
    <path class="cls-2" d="M3212.6,1777.95h173.74v84.89h-161.29c-35.09,0-51.5,22.07-51.5,49.23,0,31.13,18.11,52.63,58.29,52.63h154.5v84.89h-282.96v-84.89h26.6c-20.94-15.28-34.52-43.58-34.52-80.93,0-57.16,40.75-105.83,117.15-105.83Z"/>
    <path class="cls-2" d="M3103.38,1232.4h282.96v84.89h-26.6c20.94,15.28,34.52,43.58,34.52,80.93,0,57.16-40.75,105.83-117.15,105.83h-173.74v-84.89h161.29c35.09,0,51.5-22.07,51.5-49.23,0-31.13-18.11-52.63-58.29-52.63h-154.5v-84.89Z"/>
    <path class="cls-2" d="M3097.72,1000.37h96.21c-5.66,35.09,8.49,84.89,64.52,84.89h127.9v84.89h-282.96v-84.89h50.37c-37.92-11.32-56.03-49.23-56.03-84.89Z"/>
    <path class="cls-2" d="M3318.43,825.5c0-23.2-9.06-43.01-21.51-54.33l39.05-67.91c38.48,27.73,58.29,69.61,58.29,123.37,0,96.77-65.08,156.76-149.4,156.76s-149.4-61.12-149.4-150.53c0-82.62,63.95-143.74,149.4-143.74,11.88,0,23.2,1.13,33.96,3.4v200.9c29.43-10.75,39.61-36.79,39.61-67.91ZM3215.43,773.43c-32.82,9.05-44.71,34.52-44.71,59.99,0,32.26,15.85,53.76,44.71,61.69v-121.67Z"/>
    <path class="cls-2" d="M3301.45,432.75c65.08,0,92.81,56.59,92.81,117.71,0,56.59-21.51,99.6-67.34,121.67l-41.88-73.57c21.51-7.36,33.39-23.2,33.39-48.1,0-20.37-6.23-30.56-17.54-30.56-31.13,0-14.71,139.22-112.62,139.22-61.69,0-92.81-52.07-92.81-110.92,0-45.84,20.37-86.59,60.55-110.35l39.05,72.44c-14.71,7.92-24.9,19.24-24.9,37.92,0,14.71,5.66,23.77,15.85,23.77,32.26,0,10.75-139.22,115.45-139.22Z"/>
    <path class="cls-2" d="M3091.44,1697.02h37.4v45.27h81.49v-45.27h74.72c79.23,0,112.62-32.26,101.3-143.18h-76.97c2.26,37.35,0,58.29-24.33,58.29h-74.72v-58.29h-81.49v58.29h-68.45c4.22,6.81,8.08,13.87,11.54,21.19,9.2,19.47,15.71,40.79,19.52,63.7Z"/>
  </g>
  <path class="cls-4" d="M2794.97,2335.67v678.23h-331.38v-649.51c0-110.46-53.02-181.16-159.06-181.16s-172.32,77.32-172.32,207.67v623h-331.38v-649.51c0-110.46-53.02-181.16-159.06-181.16s-172.32,77.32-172.32,207.67v623h-331.38v-1104.61h331.38v101.63c50.81-75.11,148.02-132.56,296.03-132.56,130.34,0,227.55,53.02,289.41,145.81,61.86-88.37,163.48-145.81,320.34-145.81,254.06,0,419.75,181.16,419.75,457.31Z"/>
</svg>