<?xml version="1.0" encoding="UTF-8"?>
<svg id="Layer_1" data-name="Layer 1" xmlns="http://www.w3.org/2000/svg" viewBox="0 0 4571.06 3456">
  <defs>
    <style>
      .cls-1 {
        fill: #920004;
      }

      .cls-2 {
        fill: #fee6e6;
      }

      .cls-3 {
        fill: #c30005;
      }

      .cls-4 {
        fill: #fff;
      }

      .cls-5 {
        fill: #620002;
      }

      .cls-6 {
        fill: #f40006;
      }
    </style>
  </defs>
  <g>
    <path class="cls-6" d="M1451.24,1607.64v246.13h-120.26v-235.71c0-40.09-19.24-65.74-57.72-65.74s-62.53,28.06-62.53,75.36v226.09h-120.26v-235.71c0-40.09-19.24-65.74-57.72-65.74s-62.53,28.06-62.53,75.36v226.09h-120.26v-400.86h120.26v36.88c18.44-27.26,53.72-48.1,107.43-48.1,47.3,0,82.58,19.24,105.03,52.91,22.45-32.07,59.33-52.91,116.25-52.91,92.2,0,152.33,65.74,152.33,165.96Z"/>
    <path class="cls-6" d="M1737.45,1757.56c32.87,0,60.93-12.83,76.97-30.47l96.21,55.32c-39.28,54.52-98.61,82.58-174.78,82.58-137.09,0-222.08-92.2-222.08-211.66s86.59-211.66,213.26-211.66c117.05,0,203.64,90.59,203.64,211.66,0,16.84-1.6,32.87-4.81,48.1h-284.61c15.23,41.69,52.11,56.12,96.21,56.12ZM1811.21,1611.65c-12.83-46.5-48.91-63.34-84.98-63.34-45.7,0-76.16,22.45-87.39,63.34h172.37Z"/>
    <path class="cls-6" d="M1998.82,1268.51h120.26v585.26h-120.26v-585.26Z"/>
    <path class="cls-6" d="M2207.26,1268.51h120.26v585.26h-120.26v-585.26Z"/>
    <path class="cls-6" d="M2395.67,1653.34c0-119.46,94.6-211.66,212.46-211.66s212.46,92.2,212.46,211.66-94.6,211.66-212.46,211.66-212.46-92.2-212.46-211.66ZM2700.32,1653.34c0-56.92-40.09-94.6-92.2-94.6s-92.2,37.68-92.2,94.6,40.09,94.6,92.2,94.6,92.2-37.68,92.2-94.6Z"/>
    <path class="cls-6" d="M3441.92,1452.91l-128.28,400.86h-112.24l-64.14-214.06-64.14,214.06h-112.24l-128.28-400.86h128.28l57.72,214.86,62.54-214.86h112.24l62.53,214.86,57.72-214.86h128.28Z"/>
    <path class="cls-6" d="M3478,1345.47c0-39.28,32.87-72.15,72.16-72.15s72.15,32.87,72.15,72.15-32.87,72.16-72.15,72.16-72.16-32.87-72.16-72.16ZM3490.02,1452.91h120.26v400.86h-120.26v-400.86Z"/>
    <path class="cls-6" d="M4005.53,1733.51c0,92.2-80.17,131.48-166.76,131.48-80.17,0-141.1-30.47-172.37-95.4l104.22-59.33c10.42,30.47,32.87,47.3,68.15,47.3,28.86,0,43.29-8.82,43.29-24.85,0-44.09-197.22-20.85-197.22-159.54,0-87.39,73.76-131.48,157.14-131.48,64.94,0,122.66,28.86,156.34,85.78l-102.62,55.32c-11.23-20.84-27.26-35.28-53.72-35.28-20.85,0-33.67,8.02-33.67,22.45,0,45.7,197.23,15.23,197.23,163.55Z"/>
    <path class="cls-6" d="M4450.49,1607.64v246.13h-120.26v-228.49c0-49.71-31.27-72.96-69.75-72.96-44.09,0-74.56,25.66-74.56,82.58v218.87h-120.26v-561.21h120.26v198.03c21.65-29.66,61.73-48.91,114.65-48.91,80.97,0,149.92,57.72,149.92,165.96Z"/>
  </g>
  <g>
    <path d="M1133.11,1917.96l-97.01,262.19h-89.14l-97.01-262.19h87.05l54.53,166.23,54.53-166.23h87.05Z"/>
    <path d="M1284.65,2117.23c21.5,0,39.85-8.39,50.34-19.93l62.93,36.18c-25.69,35.66-64.5,54.01-114.31,54.01-89.67,0-145.25-60.3-145.25-138.44s56.63-138.44,139.48-138.44c76.56,0,133.19,59.25,133.19,138.44,0,11.01-1.05,21.5-3.15,31.46h-186.15c9.96,27.27,34.08,36.71,62.93,36.71ZM1332.9,2021.79c-8.39-30.41-31.99-41.43-55.58-41.43-29.89,0-49.82,14.68-57.16,41.43h112.74Z"/>
    <path d="M1707.3,2019.17v160.98h-78.66v-149.45c0-32.51-20.45-47.72-45.62-47.72-28.84,0-48.77,16.78-48.77,54.01v143.16h-78.66v-262.19h78.66v24.65c14.16-19.4,40.38-31.99,74.99-31.99,52.96,0,98.06,37.76,98.06,108.55Z"/>
    <path d="M2212.81,1917.96v262.19h-78.66v-24.65c-14.16,19.4-40.38,31.99-74.99,31.99-52.96,0-98.06-37.76-98.06-108.55v-160.98h78.66v149.45c0,32.51,20.45,47.72,45.62,47.72,28.84,0,48.77-16.78,48.77-54.01v-143.16h78.66Z"/>
    <path d="M2427.8,1912.72v89.14c-32.51-5.24-78.66,7.87-78.66,59.78v118.51h-78.66v-262.19h78.66v46.67c10.49-35.13,45.62-51.91,78.66-51.91Z"/>
    <path d="M2589.84,2117.23c21.5,0,39.85-8.39,50.34-19.93l62.93,36.18c-25.69,35.66-64.5,54.01-114.31,54.01-89.67,0-145.25-60.3-145.25-138.44s56.63-138.44,139.48-138.44c76.56,0,133.19,59.25,133.19,138.44,0,11.01-1.05,21.5-3.15,31.46h-186.15c9.96,27.27,34.08,36.71,62.93,36.71ZM2638.08,2021.79c-8.39-30.41-31.99-41.43-55.58-41.43-29.89,0-49.82,14.68-57.16,41.43h112.74Z"/>
    <path d="M2953.76,2101.49c0,60.3-52.44,86-109.07,86-52.44,0-92.29-19.93-112.74-62.4l68.17-38.8c6.82,19.93,21.5,30.94,44.57,30.94,18.88,0,28.32-5.77,28.32-16.26,0-28.84-129-13.63-129-104.35,0-57.16,48.24-86,102.78-86,42.47,0,80.23,18.88,102.25,56.11l-67.12,36.18c-7.34-13.63-17.83-23.07-35.13-23.07-13.63,0-22.02,5.24-22.02,14.68,0,29.89,129,9.96,129,106.97Z"/>
    <path d="M1782.29,1906.89v34.65h-41.95v75.51h41.95v69.23c0,73.41,29.89,104.35,132.67,93.86v-71.32c-34.61,2.1-54.01,0-54.01-22.55v-69.23h54.01v-75.51h-54.01v-63.43c-6.31,3.91-12.85,7.49-19.63,10.69-18.04,8.53-37.79,14.55-59.02,18.08Z"/>
  </g>
  <g>
    <path d="M3123.67,2099.28c0,22.9-15.03,40.97-48.67,40.97h-39.18v26.3h.11v18.25h-21.55v-18.25h.16v-88.57h-.03v-18.25h60.51c34.53,0,48.67,15.57,48.67,39.54ZM3102.2,2099.28c0-12.35-6.98-21.29-27.2-21.29h-39.18v44.19h39.18c19.5,0,27.2-8.05,27.2-22.9Z"/>
    <path d="M3236.04,2096.24l-8.07,18.25h0l-29.7,70.32h-25.94l-29.88-70.32h0l-8.32-18.25h23.71l19.15,45.8,8.05,21.83h.54l8.05-21.83,18.79-45.8h23.63Z"/>
    <path d="M3304.01,2185.88c-2.68.36-5.55.72-8.77.72-19.32,0-33.28-7.87-33.28-32.74v-39.54h-13.96v-18.07h13.96v-25.59l21.29-4.29v29.88h20.76v18.07h-20.76v38.47c0,11.81,8.77,14.67,17.36,14.67,1.07,0,2.33-.18,3.4-.36v18.79Z"/>
    <path d="M3344.08,2165.66v19.14h-19.86v-19.14h19.86Z"/>
    <path d="M3508.5,2166.59l-.18,18.21h-86.16v-18.25h.1v-88.57h-.1v-18.25h21.41v18.25h-.02v88.57h45.27l.18.04h19.5Z"/>
    <path d="M3579.53,2185.88c-2.68.36-5.55.72-8.77.72-19.32,0-33.28-7.87-33.28-32.74v-39.54h-13.96v-18.07h13.96v-25.59l21.29-4.29v29.88h20.76v18.07h-20.76v38.47c0,11.81,8.77,14.67,17.36,14.67,1.07,0,2.33-.18,3.4-.36v18.79Z"/>
    <path d="M3692.8,2166.56v18.25h-17.73l-2.33-10.2h-1.07c-3.76,7.34-16.28,12.88-28.81,12.88-29.52,0-48.31-23.08-48.31-47.24s18.61-46.88,48.31-46.88c11.81,0,24.16,6.26,27.73,13.42h.89v-28.81h.04v-18.25h21.25v106.82h.01ZM3671.67,2140.26c0-17.89-13.6-28.81-28.81-28.81s-27.2,10.91-27.2,28.81,11.63,29.16,27.2,29.16,28.81-11.45,28.81-29.16Z"/>
    <path d="M3741.8,2165.66v19.14h-19.86v-19.14h19.86Z"/>
  </g>
  <g>
    <rect x="230.81" y="1444.17" width="474.65" height="733.11"/>
    <rect class="cls-3" x="315.76" y="1444.17" width="143.51" height="733.11"/>
    <rect class="cls-6" x="158.75" y="1444.17" width="143.51" height="733.11"/>
    <rect class="cls-5" x="629.77" y="1444.17" width="143.51" height="733.11"/>
    <rect class="cls-1" x="472.76" y="1444.17" width="143.51" height="733.11"/>
    <g>
      <rect class="cls-3" x="687.66" y="2036.5" width="27.72" height="142.95" transform="translate(2809.5 1406.46) rotate(90)"/>
      <rect class="cls-6" x="687.66" y="2008.85" width="27.72" height="142.95" transform="translate(2781.85 1378.8) rotate(90)"/>
      <rect class="cls-5" x="687.66" y="2091.94" width="27.72" height="142.95" transform="translate(2864.94 1461.89) rotate(90)"/>
      <rect class="cls-1" x="687.66" y="2064.17" width="27.72" height="142.95" transform="translate(2837.16 1434.12) rotate(90)"/>
    </g>
    <g>
      <path class="cls-2" d="M666.19,1974.62l69.26,25.63v23.55l-69.26,25.63v-22.99l43.91-14.41-43.91-14.41v-22.99Z"/>
      <path class="cls-2" d="M718.83,1934.59c0-5.68-2.22-10.53-5.26-13.3l9.56-16.62c9.42,6.79,14.27,17.04,14.27,30.2,0,23.69-15.93,38.37-36.57,38.37s-36.57-14.96-36.57-36.84c0-20.22,15.65-35.18,36.57-35.18,2.91,0,5.68.28,8.31.83v49.17c7.2-2.63,9.7-9,9.7-16.62ZM693.62,1921.85c-8.03,2.22-10.94,8.45-10.94,14.68,0,7.9,3.88,13.16,10.94,15.1v-29.78Z"/>
      <path class="cls-2" d="M692.93,1822.95h42.52v20.78h-39.48c-8.59,0-12.6,5.4-12.6,12.05,0,7.62,4.43,12.88,14.27,12.88h37.81v20.78h-69.26v-20.78h6.51c-5.13-3.74-8.45-10.67-8.45-19.81,0-13.99,9.97-25.9,28.67-25.9Z"/>
      <path class="cls-2" d="M666.19,1689.42h69.26v20.78h-6.51c5.13,3.74,8.45,10.67,8.45,19.81,0,13.99-9.97,25.9-28.67,25.9h-42.52v-20.78h39.48c8.59,0,12.6-5.4,12.6-12.05,0-7.62-4.43-12.88-14.27-12.88h-37.81v-20.78Z"/>
      <path class="cls-2" d="M664.81,1632.62h23.55c-1.39,8.59,2.08,20.78,15.79,20.78h31.3v20.78h-69.26v-20.78h12.33c-9.28-2.77-13.71-12.05-13.71-20.78Z"/>
      <path class="cls-2" d="M718.83,1589.82c0-5.68-2.22-10.53-5.26-13.3l9.56-16.62c9.42,6.79,14.27,17.04,14.27,30.2,0,23.69-15.93,38.37-36.57,38.37s-36.57-14.96-36.57-36.84c0-20.22,15.65-35.18,36.57-35.18,2.91,0,5.68.28,8.31.83v49.17c7.2-2.63,9.7-9,9.7-16.62ZM693.62,1577.08c-8.03,2.22-10.94,8.45-10.94,14.68,0,7.9,3.88,13.16,10.94,15.1v-29.78Z"/>
      <path class="cls-2" d="M714.67,1493.69c15.93,0,22.72,13.85,22.72,28.81,0,13.85-5.26,24.38-16.48,29.78l-10.25-18.01c5.26-1.8,8.17-5.68,8.17-11.77,0-4.99-1.52-7.48-4.29-7.48-7.62,0-3.6,34.07-27.56,34.07-15.1,0-22.72-12.74-22.72-27.15,0-11.22,4.99-21.19,14.82-27.01l9.56,17.73c-3.6,1.94-6.09,4.71-6.09,9.28,0,3.6,1.39,5.82,3.88,5.82,7.9,0,2.63-34.07,28.26-34.07Z"/>
      <path class="cls-2" d="M663.27,1803.14h9.15v11.08h19.95v-11.08h18.29c19.39,0,27.56-7.9,24.79-35.04h-18.84c.55,9.14,0,14.27-5.96,14.27h-18.29v-14.27h-19.95v14.27h-16.75c1.03,1.67,1.98,3.39,2.82,5.19,2.25,4.77,3.84,9.98,4.78,15.59Z"/>
    </g>
    <path class="cls-4" d="M590.7,1959.45v166h-81.11v-158.97c0-27.04-12.98-44.34-38.93-44.34s-42.18,18.93-42.18,50.83v152.49h-81.11v-158.97c0-27.04-12.98-44.34-38.93-44.34s-42.18,18.93-42.18,50.83v152.49h-81.11v-270.37h81.11v24.87c12.44-18.39,36.23-32.44,72.46-32.44,31.9,0,55.7,12.98,70.84,35.69,15.14-21.63,40.01-35.69,78.41-35.69,62.18,0,102.74,44.34,102.74,111.93Z"/>
  </g>
</svg>